<?xml version="1.0" encoding="UTF-8" standalone="no"?>
<svg
   xmlns:dc="http://purl.org/dc/elements/1.1/"
   xmlns:cc="http://creativecommons.org/ns#"
   xmlns:rdf="http://www.w3.org/1999/02/22-rdf-syntax-ns#"
   xmlns:svg="http://www.w3.org/2000/svg"
   xmlns="http://www.w3.org/2000/svg"
   xmlns:sodipodi="http://sodipodi.sourceforge.net/DTD/sodipodi-0.dtd"
   xmlns:inkscape="http://www.inkscape.org/namespaces/inkscape"
   width="63"
   height="63"
   viewBox="0 0 63 63"
   fill="none"
   version="1.1"
   id="svg6"
   sodipodi:docname="eg.svg"
   inkscape:version="0.92.4 (5da689c313, 2019-01-14)">
  <metadata
     id="metadata12">
    <rdf:RDF>
      <cc:Work
         rdf:about="">
        <dc:format>image/svg+xml</dc:format>
        <dc:type
           rdf:resource="http://purl.org/dc/dcmitype/StillImage" />
        <dc:title></dc:title>
      </cc:Work>
    </rdf:RDF>
  </metadata>
  <defs
     id="defs10" />
  <sodipodi:namedview
     pagecolor="#ffffff"
     bordercolor="#666666"
     borderopacity="1"
     objecttolerance="10"
     gridtolerance="10"
     guidetolerance="10"
     inkscape:pageopacity="0"
     inkscape:pageshadow="2"
     inkscape:window-width="822"
     inkscape:window-height="480"
     id="namedview8"
     showgrid="false"
     inkscape:zoom="3.7460317"
     inkscape:cx="31.5"
     inkscape:cy="31.5"
     inkscape:window-x="0"
     inkscape:window-y="0"
     inkscape:window-maximized="0"
     inkscape:current-layer="svg6" />
  <rect
     width="63"
     height="63"
     rx="14"
     fill="#71B945"
     id="rect2"
     style="fill:#800200;fill-opacity:1" />
  <path
     d="m 22.1318,30.9043 v 0 l -0.0167,-6.9082 c 0,-0.0039 0,-0.0074 10e-5,-0.0107 m 0.0166,6.9189 0.4834,-6.9134 -0.5,-9e-4 c 0,-0.0131 5e-4,-0.0233 8e-4,-0.0277 l 10e-5,-0.0015 c -2e-4,0.0033 -7e-4,0.0122 -9e-4,0.0235 0,4e-4 0,7e-4 0,0.0011 m 0.0166,6.9189 c 0.002,0.7939 0.647,1.436 1.441,1.4341 0.7939,-0.0019 1.436,-0.647 1.4341,-1.4409 v 0 l -0.0083,-3.4288 m -2.8668,3.4356 2.8668,-3.4356 m -2.8834,-3.4833 c 0.0024,-0.7886 0.6422,-1.4309 1.4336,-1.433 0.0016,0 0.0034,-10e-5 0.0052,-10e-5 h 0.0021 l 0.0171,10e-5 6.8939,0.0166 -0.0013,0.5 0.0013,-0.5 c 0.7937,0.002 1.4359,0.6469 1.434,1.441 -0.0019,0.7939 -0.647,1.436 -1.4409,1.4341 v 0 l -3.4287,-0.0083 13.1826,13.1826 c 0.5614,0.5614 0.5614,1.4715 0,2.0329 -0.5614,0.5614 -1.4715,0.5614 -2.0329,0 L 24.9986,27.4687 m -2.8834,-3.4833 c 0,0.002 0,0.004 0,0.006 l 2.8834,3.4773 m -1.4445,-4.9163 c 6e-4,0 0.0013,0 0.002,0 z"
     id="path4"
     inkscape:connector-curvature="0"
     style="fill:#ffffff;stroke:#ffffff" />
  <path
     style="fill:#ffffff;stroke:#ffffff"
     inkscape:connector-curvature="0"
     id="path822"
     d="m 30.470268,22.569 v 0 l -6.9082,-0.0167 c -0.0039,0 -0.0074,0 -0.0107,10e-5 m 6.9189,0.0166 -6.9134,0.4834 -9e-4,-0.5 c -0.0131,0 -0.0233,5e-4 -0.0277,8e-4 l -0.0015,10e-5 c 0.0033,-2e-4 0.0122,-7e-4 0.0235,-9e-4 4e-4,0 7e-4,0 0.0011,0 m 6.9189,0.0166 c 0.7939,0.002 1.436,0.647 1.4341,1.441 -0.0019,0.7939 -0.647,1.436 -1.4409,1.4341 v 0 l -3.4288,-0.0083 m 3.4356,-2.8668 -3.4356,2.8668 m -3.4833,-2.8834 c -0.7886,0.0024 -1.4309,0.6422 -1.433,1.4336 0,0.0016 -10e-5,0.0034 -10e-5,0.0052 v 0.0021 l 10e-5,0.0171 0.0166,6.8939 0.5,-0.0013 -0.5,0.0013 c 0.002,0.7937 0.6469,1.4359 1.441,1.434 0.7939,-0.0019 1.436,-0.647 1.4341,-1.4409 v 0 l -0.0083,-3.4287 13.1826,13.1826 c 0.5614,0.5614 1.4715,0.5614 2.0329,0 0.5614,-0.5614 0.5614,-1.4715 0,-2.0329 l -13.1826,-13.1826 m -3.4833,-2.8834 c 0.002,0 0.004,0 0.006,0 l 3.4773,2.8834 m -4.9163,-1.4445 c 0,6e-4 0,0.0013 0,0.002 z" />
</svg>
